REM DISCID 8C079D0A
REM COMMENT "ExactAudioCopy v0.95b3"
PERFORMER "Linkin Park"
TITLE "In The Chamber with Linkin Park"
FILE "01 - Linkin Park - One Step Closer.wav" WAVE
  TRACK 01 AUDIO
    TITLE "One Step Closer"
    PERFORMER "Linkin Park"
    INDEX 01 00:00:00
  TRACK 02 AUDIO
    TITLE "Crawling"
    PERFORMER "Linkin Park"
    INDEX 00 02:37:27
FILE "02 - Linkin Park - Crawling.wav" WAVE
    INDEX 01 00:00:00
  TRACK 03 AUDIO
    TITLE "Runaway"
    PERFORMER "Linkin Park"
    INDEX 00 03:36:26
FILE "03 - Linkin Park - Runaway.wav" WAVE
    INDEX 01 00:00:00
  TRACK 04 AUDIO
    TITLE "Pushing me Away"
    PERFORMER "Linkin Park"
    INDEX 00 03:36:02
FILE "04 - Linkin Park - Pushing me Away.wav" WAVE
    INDEX 01 00:00:00
  TRACK 05 AUDIO
    TITLE "Runaway"
    PERFORMER "Linkin Park"
    INDEX 00 03:08:33
FILE "05 - Linkin Park - Runaway.wav" WAVE
    INDEX 01 00:00:00
  TRACK 06 AUDIO
    TITLE "Points of Authority"
    PERFORMER "Linkin Park"
    INDEX 00 03:05:30
FILE "06 - Linkin Park - Points of Authority.wav" WAVE
    INDEX 01 00:00:00
  TRACK 07 AUDIO
    TITLE "Cure for and Itch"
    PERFORMER "Linkin Park"
    INDEX 00 03:24:22
FILE "07 - Linkin Park - Cure for and Itch.wav" WAVE
    INDEX 01 00:00:00
  TRACK 08 AUDIO
    TITLE "Can't stop what i'm Hearing Within"
    PERFORMER "Linkin Park"
    INDEX 00 02:37:01
FILE "08 - Linkin Park - Can't stop what i'm Hearing Within.wav" WAVE
    INDEX 01 00:00:00
  TRACK 09 AUDIO
    TITLE "Somewhere I Belong"
    PERFORMER "Linkin Park"
    INDEX 00 03:24:13
FILE "09 - Linkin Park - Somewhere I Belong.wav" WAVE
    INDEX 01 00:00:00
FILE "10 - Linkin Park - By Myself.wav" WAVE
  TRACK 10 AUDIO
    TITLE "By Myself"
    PERFORMER "Linkin Park"
    INDEX 01 00:00:00
